HIERARCHY
ROOT pelvis
{
  OFFSET 0 100 0
  CHANNELS 6 Xposition Yposition Zposition Zrotation Xrotation Yrotation
  JOINT pelvis_right_femur
  {
    OFFSET -10.78128 -3.44521 -0.5502486
    CHANNELS 3 Zrotation Xrotation Yrotation
    JOINT right_femur_tibia
    {
      OFFSET -0.8047443 -44.0398 -0.1307829
      CHANNELS 3 Zrotation Xrotation Yrotation
      JOINT right_tibia_foot
      {
        OFFSET 3.006224 -47.83518 -5
        CHANNELS 3 Zrotation Xrotation Yrotation
        End Site
        {
          OFFSET 0 -5 15
        }
      }
    }
  }
  JOINT pelvis_left_femur
  {
    OFFSET 10.78128 -3.44521 -0.5502486
    CHANNELS 3 Zrotation Xrotation Yrotation
    JOINT left_femur_tibia
    {
      OFFSET 0.8047443 -44.0398 -0.1307829
      CHANNELS 3 Zrotation Xrotation Yrotation
      JOINT left_tibia_foot
      {
        OFFSET -4.370144 -48.10324 -4.275266
        CHANNELS 3 Zrotation Xrotation Yrotation
        End Site
        {
          OFFSET 0 -5 15
        }
      }
    }
  }
  JOINT pelvis_spine1
  {
    OFFSET 0 6.468898 -3.129235
    CHANNELS 3 Zrotation Xrotation Yrotation
    JOINT spine1
    {
      OFFSET 0 23.15396 4.99043
      CHANNELS 3 Zrotation Xrotation Yrotation
      JOINT spine2
      {
        OFFSET 0 20.79997 -5.064912
        CHANNELS 3 Zrotation Xrotation Yrotation
        JOINT neck
        {
          OFFSET 0 14.38658 9.616178
          CHANNELS 3 Zrotation Xrotation Yrotation
          End Site
          {
            OFFSET 0 20 0
          }
        }
      }
      JOINT right_manubrium
      {
        OFFSET -5.722621 16.35077 3.967754
        CHANNELS 3 Zrotation Xrotation Yrotation
        JOINT right_clavicle
        {
          OFFSET -13.16364 1.694482 -4.693211
          CHANNELS 3 Zrotation Xrotation Yrotation
          JOINT right_humerus
          {
            OFFSET -28.5034 -0.3100689 -2.792744
            CHANNELS 3 Zrotation Xrotation Yrotation
            JOINT right_radius
            {
              OFFSET -25.15693 0.02248979 -1.271978
              CHANNELS 3 Zrotation Xrotation Yrotation
              End Site
              {
                OFFSET -15 0 0
              }
            }
          }
        }
      }
      JOINT left_manubrium
      {
        OFFSET 5.722621 16.35077 3.967754
        CHANNELS 3 Zrotation Xrotation Yrotation
        JOINT left_clavicle
        {
          OFFSET 13.16364 1.694482 -4.693211
          CHANNELS 3 Zrotation Xrotation Yrotation
          JOINT left_humerus
          {
            OFFSET 29.39168 -1.063119 -2.237045
            CHANNELS 3 Zrotation Xrotation Yrotation
            JOINT left_radius
            {
              OFFSET 24.59957 -0.9528479 0.9047498
              CHANNELS 3 Zrotation Xrotation Yrotation
              End Site
              {
                OFFSET 15 -0 -0
              }
            }
          }
        }
      }
    }
  }
}
MOTION
Frames: 15
Frame Time: 0.0416666666667
981.1337 103.9212 1745.485 4.218744 -5.228026 48.63699 4.626187 -4.143554 3.268227 -0 28.54095 -0 -9.168717 -6.465631 -2.486679 -3.5727 0.8084503 -14.28443 -0 11.1462 -0 2.175218 -13.22879 22.67261 0.02131149 -1.846385 4.243946 1.102549 11.59842 -5.830379 2.35423 22.80722 4.843388 1.108509 -24.0725 9.401094 -2.05346 -23.43578 10.75165 90.46267 19.52793 -14.35949 -0 0 18.00123 -16.5385 7.893643 8.083541 7.302084 -20.28772 -1.870728 -94.59707 16.61026 22.59043 0 0 -4.348806 14.84275 15.36846 -5.840368
984.4569 103.9204 1747.947 4.227553 -5.220912 48.73373 4.626187 -4.143554 3.268227 -0 28.54095 -0 -9.168717 -6.465631 -2.486679 -3.5727 0.8084503 -14.28443 -0 11.1462 -0 2.175218 -13.22879 22.67261 0.02131149 -1.846385 4.243946 1.102549 11.59842 -5.830379 2.35423 22.80722 4.843388 1.108509 -24.0725 9.401094 -2.05346 -23.43578 10.75165 90.46267 19.52793 -14.35949 -0 0 18.00123 -16.5385 7.893643 8.083541 7.302084 -20.28772 -1.870728 -94.59707 16.61026 22.59043 0 0 -4.348806 14.84275 15.36846 -5.840368
987.7842 103.9196 1750.402 4.23635 -5.213783 48.83047 4.626187 -4.143554 3.268227 -0 28.54095 -0 -9.168717 -6.465631 -2.486679 -3.5727 0.8084503 -14.28443 -0 11.1462 -0 2.175218 -13.22879 22.67261 0.02131149 -1.846385 4.243946 1.102549 11.59842 -5.830379 2.35423 22.80722 4.843388 1.108509 -24.0725 9.401094 -2.05346 -23.43578 10.75165 90.46267 19.52793 -14.35949 -0 0 18.00123 -16.5385 7.893643 8.083541 7.302084 -20.28772 -1.870728 -94.59707 16.61026 22.59043 0 0 -4.348806 14.84275 15.36846 -5.840368
991.1157 103.9188 1752.852 4.245135 -5.20664 48.9272 4.626187 -4.143554 3.268227 -0 28.54095 -0 -9.168717 -6.465631 -2.486679 -3.5727 0.8084503 -14.28443 -0 11.1462 -0 2.175218 -13.22879 22.67261 0.02131149 -1.846385 4.243946 1.102549 11.59842 -5.830379 2.35423 22.80722 4.843388 1.108509 -24.0725 9.401094 -2.05346 -23.43578 10.75165 90.46267 19.52793 -14.35949 -0 0 18.00123 -16.5385 7.893643 8.083541 7.302084 -20.28772 -1.870728 -94.59707 16.61026 22.59043 0 0 -4.348806 14.84275 15.36846 -5.840368
994.4513 103.918 1755.297 4.253907 -5.199482 49.02394 4.626187 -4.143554 3.268227 -0 28.54095 -0 -9.168717 -6.465631 -2.486679 -3.5727 0.8084503 -14.28443 -0 11.1462 -0 2.175218 -13.22879 22.67261 0.02131149 -1.846385 4.243946 1.102549 11.59842 -5.830379 2.35423 22.80722 4.843388 1.108509 -24.0725 9.401094 -2.05346 -23.43578 10.75165 90.46267 19.52793 -14.35949 -0 0 18.00123 -16.5385 7.893643 8.083541 7.302084 -20.28772 -1.870728 -94.59707 16.61026 22.59043 0 0 -4.348806 14.84275 15.36846 -5.840368
997.791 103.9171 1757.735 4.262668 -5.192309 49.12067 4.626187 -4.143554 3.268227 -0 28.54095 -0 -9.168717 -6.465631 -2.486679 -3.5727 0.8084503 -14.28443 -0 11.1462 -0 2.175218 -13.22879 22.67261 0.02131149 -1.846385 4.243946 1.102549 11.59842 -5.830379 2.35423 22.80722 4.843388 1.108509 -24.0725 9.401094 -2.05346 -23.43578 10.75165 90.46267 19.52793 -14.35949 -0 0 18.00123 -16.5385 7.893643 8.083541 7.302084 -20.28772 -1.870728 -94.59707 16.61026 22.59043 0 0 -4.348806 14.84275 15.36846 -5.840368
1001.135 103.9163 1760.168 4.271415 -5.185121 49.2174 4.626187 -4.143554 3.268227 -0 28.54095 -0 -9.168717 -6.465631 -2.486679 -3.5727 0.8084503 -14.28443 -0 11.1462 -0 2.175218 -13.22879 22.67261 0.02131149 -1.846385 4.243946 1.102549 11.59842 -5.830379 2.35423 22.80722 4.843388 1.108509 -24.0725 9.401094 -2.05346 -23.43578 10.75165 90.46267 19.52793 -14.35949 -0 0 18.00123 -16.5385 7.893643 8.083541 7.302084 -20.28772 -1.870728 -94.59707 16.61026 22.59043 0 0 -4.348806 14.84275 15.36846 -5.840368
1004.483 103.9155 1762.596 4.280151 -5.177919 49.31413 4.626187 -4.143554 3.268227 -0 28.54095 -0 -9.168717 -6.465631 -2.486679 -3.5727 0.8084503 -14.28443 -0 11.1462 -0 2.175218 -13.22879 22.67261 0.02131149 -1.846385 4.243946 1.102549 11.59842 -5.830379 2.35423 22.80722 4.843388 1.108509 -24.0725 9.401094 -2.05346 -23.43578 10.75165 90.46267 19.52793 -14.35949 -0 0 18.00123 -16.5385 7.893643 8.083541 7.302084 -20.28772 -1.870728 -94.59707 16.61026 22.59043 0 0 -4.348806 14.84275 15.36846 -5.840368
1007.835 103.9147 1765.018 4.288874 -5.170702 49.41085 4.626187 -4.143554 3.268227 -0 28.54095 -0 -9.168717 -6.465631 -2.486679 -3.5727 0.8084503 -14.28443 -0 11.1462 -0 2.175218 -13.22879 22.67261 0.02131149 -1.846385 4.243946 1.102549 11.59842 -5.830379 2.35423 22.80722 4.843388 1.108509 -24.0725 9.401094 -2.05346 -23.43578 10.75165 90.46267 19.52793 -14.35949 -0 0 18.00123 -16.5385 7.893643 8.083541 7.302084 -20.28772 -1.870728 -94.59707 16.61026 22.59043 0 0 -4.348806 14.84275 15.36846 -5.840368
1011.191 103.9139 1767.434 4.297585 -5.16347 49.50758 4.626187 -4.143554 3.268227 -0 28.54095 -0 -9.168717 -6.465631 -2.486679 -3.5727 0.8084503 -14.28443 -0 11.1462 -0 2.175218 -13.22879 22.67261 0.02131149 -1.846385 4.243946 1.102549 11.59842 -5.830379 2.35423 22.80722 4.843388 1.108509 -24.0725 9.401094 -2.05346 -23.43578 10.75165 90.46267 19.52793 -14.35949 -0 0 18.00123 -16.5385 7.893643 8.083541 7.302084 -20.28772 -1.870728 -94.59707 16.61026 22.59043 0 0 -4.348806 14.84275 15.36846 -5.840368
1014.551 103.913 1769.844 4.306284 -5.156224 49.6043 4.626187 -4.143554 3.268227 -0 28.54095 -0 -9.168717 -6.465631 -2.486679 -3.5727 0.8084503 -14.28443 -0 11.1462 -0 2.175218 -13.22879 22.67261 0.02131149 -1.846385 4.243946 1.102549 11.59842 -5.830379 2.35423 22.80722 4.843388 1.108509 -24.0725 9.401094 -2.05346 -23.43578 10.75165 90.46267 19.52793 -14.35949 -0 0 18.00123 -16.5385 7.893643 8.083541 7.302084 -20.28772 -1.870728 -94.59707 16.61026 22.59043 0 0 -4.348806 14.84275 15.36846 -5.840368
1017.915 103.9122 1772.249 4.31497 -5.148963 49.70102 4.626187 -4.143554 3.268227 -0 28.54095 -0 -9.168717 -6.465631 -2.486679 -3.5727 0.8084503 -14.28443 -0 11.1462 -0 2.175218 -13.22879 22.67261 0.02131149 -1.846385 4.243946 1.102549 11.59842 -5.830379 2.35423 22.80722 4.843388 1.108509 -24.0725 9.401094 -2.05346 -23.43578 10.75165 90.46267 19.52793 -14.35949 -0 0 18.00123 -16.5385 7.893643 8.083541 7.302084 -20.28772 -1.870728 -94.59707 16.61026 22.59043 0 0 -4.348806 14.84275 15.36846 -5.840368
1021.283 103.9114 1774.648 4.323644 -5.141687 49.79774 4.626187 -4.143554 3.268227 -0 28.54095 -0 -9.168717 -6.465631 -2.486679 -3.5727 0.8084503 -14.28443 -0 11.1462 -0 2.175218 -13.22879 22.67261 0.02131149 -1.846385 4.243946 1.102549 11.59842 -5.830379 2.35423 22.80722 4.843388 1.108509 -24.0725 9.401094 -2.05346 -23.43578 10.75165 90.46267 19.52793 -14.35949 -0 0 18.00123 -16.5385 7.893643 8.083541 7.302084 -20.28772 -1.870728 -94.59707 16.61026 22.59043 0 0 -4.348806 14.84275 15.36846 -5.840368
1024.656 103.9106 1777.042 4.332305 -5.134397 49.89445 4.626187 -4.143554 3.268227 -0 28.54095 -0 -9.168717 -6.465631 -2.486679 -3.5727 0.8084503 -14.28443 -0 11.1462 -0 2.175218 -13.22879 22.67261 0.02131149 -1.846385 4.243946 1.102549 11.59842 -5.830379 2.35423 22.80722 4.843388 1.108509 -24.0725 9.401094 -2.05346 -23.43578 10.75165 90.46267 19.52793 -14.35949 -0 0 18.00123 -16.5385 7.893643 8.083541 7.302084 -20.28772 -1.870728 -94.59707 16.61026 22.59043 0 0 -4.348806 14.84275 15.36846 -5.840368
1028.032 103.9097 1779.429 4.340954 -5.127093 49.99116 4.626187 -4.143554 3.268227 -0 28.54095 -0 -9.168717 -6.465631 -2.486679 -3.5727 0.8084503 -14.28443 -0 11.1462 -0 2.175218 -13.22879 22.67261 0.02131149 -1.846385 4.243946 1.102549 11.59842 -5.830379 2.35423 22.80722 4.843388 1.108509 -24.0725 9.401094 -2.05346 -23.43578 10.75165 90.46267 19.52793 -14.35949 -0 0 18.00123 -16.5385 7.893643 8.083541 7.302084 -20.28772 -1.870728 -94.59707 16.61026 22.59043 0 0 -4.348806 14.84275 15.36846 -5.840368
